<svg xmlns="http://www.w3.org/2000/svg" viewBox="0 0 200 40" fill="none">
  <!-- Icon: Graduation cap + shield -->
  <g>
    <!-- Shield base -->
    <path d="M4 8C4 6.895 4.895 6 6 6h24c1.105 0 2 .895 2 2v14c0 5.523-6.268 10-13 12C12.268 32 4 27.523 4 22V8z" fill="url(#shield-grad)"/>
    <!-- Graduation cap on shield -->
    <path d="M18 12l-10 5 10 5 10-5-10-5z" fill="#f59e0b" opacity="0.9"/>
    <path d="M12 18.5v4c0 1.5 2.686 3 6 3s6-1.5 6-3v-4" stroke="#fbbf24" stroke-width="1.5" fill="none" stroke-linecap="round"/>
    <line x1="28" y1="17" x2="28" y2="24" stroke="#fbbf24" stroke-width="1.5" stroke-linecap="round"/>
    <circle cx="28" cy="24.5" r="1" fill="#fbbf24"/>
  </g>
  <!-- Text: Max Gorin Scholarship -->
  <text x="38" y="16" font-family="system-ui,-apple-system,sans-serif" font-weight="700" font-size="13" fill="#1e3a5f">Max Gorin</text>
  <text x="38" y="30" font-family="system-ui,-apple-system,sans-serif" font-weight="600" font-size="10" fill="#2563eb" letter-spacing="0.5">SCHOLARSHIP</text>
  <defs>
    <linearGradient id="shield-grad" x1="4" y1="6" x2="32" y2="34" gradientUnits="userSpaceOnUse">
      <stop offset="0%" stop-color="#0f2744"/>
      <stop offset="100%" stop-color="#1e3a5f"/>
    </linearGradient>
  </defs>
</svg>
